<?xml version="1.0" encoding="UTF-8" standalone="no"?>
<svg
   xmlns:dc="http://purl.org/dc/elements/1.1/"
   xmlns:cc="http://creativecommons.org/ns#"
   xmlns:rdf="http://www.w3.org/1999/02/22-rdf-syntax-ns#"
   xmlns:svg="http://www.w3.org/2000/svg"
   xmlns="http://www.w3.org/2000/svg"
   xmlns:sodipodi="http://sodipodi.sourceforge.net/DTD/sodipodi-0.dtd"
   xmlns:inkscape="http://www.inkscape.org/namespaces/inkscape"
   stroke="#000000"
   fill="#000000"
   stroke-width="0"
   viewBox="0 0 24 24"
   height="16px"
   width="16px"
   version="1.1"
   id="svg1564"
   sodipodi:docname="icon.svg"
   inkscape:version="0.92.5 (2060ec1f9f, 2020-04-08)">
  <metadata
     id="metadata1570">
    <rdf:RDF>
      <cc:Work
         rdf:about="">
        <dc:format>image/svg+xml</dc:format>
        <dc:type
           rdf:resource="http://purl.org/dc/dcmitype/StillImage" />
        <dc:title></dc:title>
      </cc:Work>
    </rdf:RDF>
  </metadata>
  <defs
     id="defs1568" />
  <sodipodi:namedview
     pagecolor="#ffffff"
     bordercolor="#666666"
     borderopacity="1"
     objecttolerance="10"
     gridtolerance="10"
     guidetolerance="10"
     inkscape:pageopacity="0"
     inkscape:pageshadow="2"
     inkscape:window-width="2560"
     inkscape:window-height="1312"
     id="namedview1566"
     showgrid="false"
     inkscape:zoom="22.649514"
     inkscape:cx="11.193174"
     inkscape:cy="2.170566"
     inkscape:window-x="0"
     inkscape:window-y="54"
     inkscape:window-maximized="1"
     inkscape:current-layer="g1590" />
  <g
     id="g1590">
    <circle
       id="circle1560"
       r="3.2"
       cy="12"
       cx="12" />
    <path
       inkscape:connector-curvature="0"
       id="path1562"
       d="M 9,2 7.17,4 H 4 C 2.9,4 2,4.9 2,6 v 12 c 0,1.1 0.9,2 2,2 h 16 c 1.1,0 2,-0.9 2,-2 V 6 C 22,4.9 21.1,4 20,4 H 16.83 L 15,2 Z m 3,15 C 9.24,17 7,14.76 7,12 7,9.24 9.24,7 12,7 c 2.76,0 5,2.24 5,5 0,2.76 -2.24,5 -5,5 z"
       style="fill:#000000;fill-opacity:1" />
  </g>
  <path
     sodipodi:type="star"
     style="opacity:0.805;fill:#ffffff;fill-opacity:1;fill-rule:nonzero;stroke:#000000;stroke-width:0;stroke-miterlimit:4;stroke-dasharray:none;stroke-opacity:1"
     id="path1586"
     sodipodi:sides="3"
     sodipodi:cx="19.536842"
     sodipodi:cy="20.953577"
     sodipodi:r1="19.922318"
     sodipodi:r2="9.9611588"
     sodipodi:arg1="0.8300743"
     sodipodi:arg2="1.8772718"
     inkscape:flatsided="true"
     inkscape:rounded="0"
     inkscape:randomized="0"
     d="M 32.980839,35.655879 0.08227691,25.245269 25.547411,1.9595833 Z"
     inkscape:transform-center-x="3.3319737"
     inkscape:transform-center-y="-2.5928949"
     transform="matrix(1.1087049,0,0,1.208332,-3.0553667,-3.5208933)" />
</svg>
